<?xml version="1.0" encoding="utf-8"?>
<!-- Generator: Adobe Illustrator 24.0.1, SVG Export Plug-In . SVG Version: 6.00 Build 0)  -->
<svg version="1.1" id="Layer_1" xmlns="http://www.w3.org/2000/svg" xmlns:xlink="http://www.w3.org/1999/xlink" x="0px" y="0px"
	 viewBox="0 0 512 512" style="enable-background:new 0 0 512 512;" xml:space="preserve">
<style type="text/css">
	.st0{fill:#FFFFFF;}
	.st1{fill:#002457;}
	.st2{font-family:'Fontastique-Fontastique';}
	.st3{font-size:99.9071px;}
	.st4{fill:#F6921E;}
</style>
<circle class="st0" cx="254.5" cy="257.5" r="247.5"/>
<g>
	<text transform="matrix(1 0 0 1 56.1729 364.9043)"><tspan x="0" y="0" class="st1 st2 st3">Lendr</tspan><tspan x="229.78" y="0" class="st4 st2 st3">360</tspan></text>
</g>
<path class="st1" d="M501.99,256.95C501.7,120.52,391.01,10,254.5,10S7.3,120.52,7.01,256.95H501.99z"/>
<path class="st0" d="M197.99,106.65c2.41-0.86,5.05,0.4,5.91,2.8c0.86,2.41-0.4,5.05-2.8,5.91c-0.06,0.02-20.89,7.34-46.05,25.5
	c-2.07,1.5-4.97,1.04-6.47-1.03c-1.5-2.07-1.04-4.97,1.03-6.47C175.82,114.44,197.92,106.67,197.99,106.65L197.99,106.65z"/>
<path class="st4" d="M123.6,134.13c-1.98,1.62-4.89,1.33-6.51-0.65c-1.62-1.98-1.33-4.89,0.65-6.51
	c25.47-20.91,57.91-38.4,91.78-49.76c32.59-10.94,66.56-16.24,96.99-13.52c2.14,0.19,3.82,1.8,4.17,3.82l0.01,0l4.86,27.42
	c20.68,1.88,32.6,5.44,32.64,5.45c2.08,0.62,3.41,2.57,3.31,4.65l-0.36,24.17c21.68,6.03,32.61,12.07,32.64,12.09
	c1.83,1,2.71,3.07,2.31,5.01l0,0l-15.5,73.83c-0.52,2.51-2.98,4.12-5.49,3.59c-0.45-0.09-0.87-0.25-1.26-0.46
	c-18.86-8.94-50.61-16.86-85.12-17.78c-26.85-0.71-55.26,2.83-80.37,13.45c-2.35,1-5.07-0.1-6.06-2.46c-1-2.35,0.1-5.07,2.46-6.06
	c26.47-11.2,56.2-14.94,84.2-14.2c32.93,0.87,63.6,7.96,83.74,16.39l13.58-64.71c-4.14-1.93-12.54-5.46-25.28-9.14l-0.62,41.55
	c-0.03,2.56-2.13,4.6-4.69,4.57c-0.38,0-0.74-0.06-1.09-0.14l0,0.01c-20.73-5.35-52.68-8.81-87.02-3.55
	c-25.22,3.86-51.72,12.45-75.95,28.47c-2.13,1.41-5.01,0.83-6.42-1.3c-1.41-2.13-0.83-5.01,1.3-6.42
	c25.46-16.83,53.25-25.84,79.69-29.9c32.75-5.02,63.45-2.41,85,2.36l0.98-66.01c-4.37-1.04-12.9-2.78-24.96-4l6.99,39.42
	c0.44,2.52-1.25,4.93-3.78,5.37c-0.5,0.09-0.99,0.09-1.46,0.02c-20.86-1.35-53.87,2.65-86.94,13.53
	c-25.81,8.48-51.56,21.13-71.4,38.63c-1.92,1.69-4.84,1.5-6.52-0.41c-1.69-1.92-1.5-4.84,0.41-6.52
	c20.89-18.42,47.77-31.65,74.63-40.48c31.48-10.35,63.07-14.67,84.92-14.2l-11.89-67.09c-28.24-1.9-59.55,3.22-89.72,13.35
	C179.61,97.01,148.2,113.93,123.6,134.13L123.6,134.13z"/>
<path class="st0" d="M194.65,152.73c2.43-0.81,5.05,0.51,5.86,2.93c0.81,2.43-0.51,5.05-2.93,5.86
	c-0.04,0.01-14.96,4.93-32.66,19.68c-1.97,1.64-4.89,1.37-6.53-0.59c-1.64-1.97-1.37-4.89,0.59-6.53
	C178.01,158.22,194.6,152.75,194.65,152.73L194.65,152.73z"/>
<path class="st0" d="M189.82,133.61c2.41-0.86,5.05,0.4,5.91,2.8c0.86,2.41-0.4,5.05-2.8,5.91c-0.08,0.03-29.29,10.3-82.6,55.6
	c-1.95,1.66-4.87,1.42-6.53-0.52c-1.66-1.95-1.42-4.87,0.52-6.53C158.91,144.49,189.73,133.64,189.82,133.61L189.82,133.61z"/>
<path class="st0" d="M233.53,109.12c-0.45-1.77,1.33-3.24,4.29-4.14c1.57-0.47,3.69-0.76,6-0.83c2.33-0.07,4.88,0.07,7.29,0.47
	c0.57-2.39,1.13-4.75,1.69-7.1c-1.91-0.36-4.05-0.53-6.3-0.47c-2.23,0.06-4.57,0.33-6.87,0.83c-0.57-2.1-1.15-4.19-1.72-6.27
	c-2.19,0.68-4.37,1.35-6.55,2.03c0.55,2.14,1.11,4.29,1.67,6.45c-3.24,1.47-5.72,3.38-7.24,5.52c-1.53,2.14-2.1,4.56-1.52,7.04
	c1.38,5.86,7.14,6.36,12.79,6.17c5.72-0.19,11.33-1.1,12.24,2.14c0.6,2.13-1.37,4-5.19,5.09c-2.17,0.62-4.87,0.84-7.64,0.67
	c-2.75-0.18-5.57-0.76-8.01-1.74c-0.7,2.47-1.4,4.94-2.09,7.44c2.15,0.83,4.62,1.39,7.23,1.63c2.63,0.24,5.42,0.17,8.19-0.25
	c0.67,2.59,1.35,5.22,2.04,7.85c2.41-0.66,4.82-1.33,7.25-2c-0.72-2.61-1.42-5.2-2.13-7.76c3.72-1.47,6.72-3.51,8.56-5.96
	c1.83-2.44,2.49-5.26,1.6-8.28c-1.84-6.16-7.9-6.73-13.67-6.56C239.75,111.25,234.3,112.15,233.53,109.12L233.53,109.12z"/>
</svg>
